<svg width="34" height="34" viewBox="0 0 34 34" fill="none" xmlns="http://www.w3.org/2000/svg">
<rect x="8.74286" y="17" width="7.77143" height="7.55556" rx="1" fill="#454545"/>
<rect x="8.74286" y="17" width="7.77143" height="7.55556" rx="1" fill="#454545"/>
<rect x="8.74286" y="17" width="7.77143" height="7.55556" rx="1" fill="#454545"/>
<rect x="26.2286" width="7.77143" height="7.55556" rx="1" fill="#454545"/>
<rect x="26.2286" width="7.77143" height="7.55556" rx="1" fill="#454545"/>
<rect x="26.2286" width="7.77143" height="7.55556" rx="1" fill="#454545"/>
<rect x="17.4857" y="8.5" width="7.77143" height="7.55556" rx="1" fill="#454545"/>
<rect x="17.4857" y="8.5" width="7.77143" height="7.55556" rx="1" fill="#454545"/>
<rect x="17.4857" y="8.5" width="7.77143" height="7.55556" rx="1" fill="#AFAFAF"/>
<rect y="26.4445" width="7.77143" height="7.55556" rx="1" fill="#454545"/>
<rect y="26.4445" width="7.77143" height="7.55556" rx="1" fill="#454545"/>
<rect y="26.4445" width="7.77143" height="7.55556" rx="1" fill="#454545"/>
<path d="M3.40001 25.5L3.40001 19.8333M3.40001 19.8333L0.971435 22.1944M3.40001 19.8333L5.82858 22.1944" stroke="#454545"/>
<path d="M8.74286 30.6945H14.5714M14.5714 30.6945L12.1429 28.3333M14.5714 30.6945L12.1429 33.0556" stroke="#454545"/>
</svg>
