<svg width="35" height="35" viewBox="0 0 35 35" fill="none" xmlns="http://www.w3.org/2000/svg">
<path fill-rule="evenodd" clip-rule="evenodd" d="M17.9745 0.968063L23.0255 9.24256L29.3154 4.28875L34.4809 11.1642L33.7091 11.772L29.1373 5.68683L22.7686 10.7027L18.0823 3.02569L13.4607 12.7852L18.1554 22.0983L19.7026 20.5142L22.8956 12.668L24.8542 17.4499H29.428L32.3501 20.4417L33.6456 17.2582L34.5444 17.6417L33.0947 21.2041L34.4393 22.5808L33.7507 23.2858L32.6897 22.1993L29.2278 30.7061L24.2066 18.4469H23.0987L20.5273 21.0797L18.4437 26.1997L10.3835 34.9681L0.841411 31.8829L1.13463 30.9322L10.0935 33.8288L17.6131 25.6487L18.719 22.9312L17.9014 23.7682L12.9299 13.9061L10.3617 19.3293L7.14557 15.6898L1.43161 28.6221L0.544434 28.2112L6.43308 14.8835L0.626993 8.31314L1.34905 7.64426L6.87079 13.8929L10.2096 6.3361L12.9027 11.6783L17.9745 0.968063ZM12.3719 12.7992L10.2674 8.62433L7.58328 14.6992L10.1153 17.5645L12.3719 12.7992ZM21.511 18.6626L22.6954 17.4499H23.7983L22.8985 15.253L21.511 18.6626ZM25.2625 18.4469L29.2249 28.1211L31.945 21.437L29.0247 18.4469H25.2625Z" fill="#454545"/>
</svg>
