<svg width="34" height="34" viewBox="0 0 34 34" fill="none" xmlns="http://www.w3.org/2000/svg">
<path d="M12.6 11.4535C13.1523 11.4535 13.6 11.8764 13.6 12.398L13.6 22.1859C13.6 22.7075 13.1523 23.1303 12.6 23.1303L1 23.1303C0.447719 23.1303 5.13174e-06 22.7075 5.1591e-06 22.1859L5.67251e-06 12.398C5.69987e-06 11.8764 0.447721 11.4535 1.00001 11.4535L12.6 11.4535Z" fill="#454545"/>
<path d="M33 11.4535C33.5523 11.4535 34 11.8764 34 12.398L34 22.1859C34 22.7075 33.5523 23.1303 33 23.1303L21.4 23.1303C20.8477 23.1303 20.4 22.7075 20.4 22.1859L20.4 12.398C20.4 11.8764 20.8477 11.4535 21.4 11.4535L33 11.4535Z" fill="#454545"/>
<path fill-rule="evenodd" clip-rule="evenodd" d="M5.79999 1.88889H4.07999V0H9.51999V1.88889H7.79999V12.0374H5.79999V1.88889Z" fill="#454545"/>
<path fill-rule="evenodd" clip-rule="evenodd" d="M26.2 6.55959H24.48V4.6707H29.92V6.55959H28.2V11.4535H26.2V6.55959Z" fill="#454545"/>
<path fill-rule="evenodd" clip-rule="evenodd" d="M7.79999 25.1051L9.51999 25.1051L9.51999 26.9939L4.07999 26.9939L4.07999 25.1051L5.79999 25.1051L5.79999 14.9566L7.79999 14.9566L7.79999 25.1051Z" fill="#454545"/>
<path fill-rule="evenodd" clip-rule="evenodd" d="M28.2 32.1111L29.92 32.1111L29.92 34L24.48 34L24.48 32.1111L26.2 32.1111L26.2 21.9626L28.2 21.9626L28.2 32.1111Z" fill="#454545"/>
</svg>
