<svg width="34" height="34" viewBox="0 0 34 34" fill="none" xmlns="http://www.w3.org/2000/svg">
<rect y="13.9579" width="3.52439" height="6.0842" rx="1" fill="#454545"/>
<rect x="8.70731" y="13.9579" width="3.52439" height="6.0842" rx="1" fill="#454545"/>
<rect y="20.9369" width="3.52439" height="6.0842" rx="1" fill="#AFAFAF"/>
<rect x="8.70731" y="20.9369" width="3.52439" height="6.0842" rx="1" fill="#AFAFAF"/>
<rect x="8.70731" y="27.9158" width="3.52439" height="6.0842" rx="1" fill="#AFAFAF"/>
<rect y="27.9158" width="3.52439" height="6.0842" rx="1" fill="#454545"/>
<rect x="4.35367" y="13.9579" width="3.52439" height="6.0842" rx="1" fill="#AFAFAF"/>
<rect x="13.061" y="13.9579" width="3.52439" height="6.0842" rx="1" fill="#AFAFAF"/>
<rect x="4.35367" y="20.9369" width="3.52439" height="6.0842" rx="1" fill="#454545"/>
<rect x="13.061" y="20.9369" width="3.52439" height="6.0842" rx="1" fill="#454545"/>
<rect x="4.35367" y="27.9158" width="3.52439" height="6.0842" rx="1" fill="#454545"/>
<rect x="13.061" y="27.9158" width="3.52439" height="6.0842" rx="1" fill="#454545"/>
<rect x="34" y="34" width="3.52439" height="6.0842" rx="1" transform="rotate(-180 34 34)" fill="#454545"/>
<rect x="25.2927" y="34" width="3.52439" height="6.0842" rx="1" transform="rotate(-180 25.2927 34)" fill="#454545"/>
<rect x="34" y="27.021" width="3.52439" height="6.0842" rx="1" transform="rotate(-180 34 27.021)" fill="#AFAFAF"/>
<rect x="25.2927" y="27.021" width="3.52439" height="6.0842" rx="1" transform="rotate(-180 25.2927 27.021)" fill="#AFAFAF"/>
<rect x="25.2927" y="20.0421" width="3.52439" height="6.0842" rx="1" transform="rotate(-180 25.2927 20.0421)" fill="#AFAFAF"/>
<rect x="34" y="20.0421" width="3.52439" height="6.0842" rx="1" transform="rotate(-180 34 20.0421)" fill="#454545"/>
<rect x="29.6463" y="34" width="3.52439" height="6.0842" rx="1" transform="rotate(-180 29.6463 34)" fill="#AFAFAF"/>
<rect x="20.939" y="34" width="3.52439" height="6.0842" rx="1" transform="rotate(-180 20.939 34)" fill="#AFAFAF"/>
<rect x="29.6463" y="27.021" width="3.52439" height="6.0842" rx="1" transform="rotate(-180 29.6463 27.021)" fill="#454545"/>
<rect x="20.939" y="27.021" width="3.52439" height="6.0842" rx="1" transform="rotate(-180 20.939 27.021)" fill="#454545"/>
<rect x="29.6463" y="20.0421" width="3.52439" height="6.0842" rx="1" transform="rotate(-180 29.6463 20.0421)" fill="#454545"/>
<rect x="20.939" y="20.0421" width="3.52439" height="6.0842" rx="1" transform="rotate(-180 20.939 20.0421)" fill="#454545"/>
<rect width="3.52439" height="6.0842" rx="1" fill="#AFAFAF"/>
<rect x="8.70731" width="3.52439" height="6.0842" rx="1" fill="#AFAFAF"/>
<rect x="8.70731" y="6.97894" width="3.52439" height="6.0842" rx="1" fill="#AFAFAF"/>
<rect y="6.97894" width="3.52439" height="6.0842" rx="1" fill="#454545"/>
<rect x="4.35367" width="3.52439" height="6.0842" rx="1" fill="#454545"/>
<rect x="13.061" width="3.52439" height="6.0842" rx="1" fill="#454545"/>
<rect x="4.35367" y="6.97894" width="3.52439" height="6.0842" rx="1" fill="#454545"/>
<rect x="13.061" y="6.97894" width="3.52439" height="6.0842" rx="1" fill="#454545"/>
<rect x="17.4146" width="3.52439" height="6.0842" rx="1" fill="#AFAFAF"/>
<rect x="26.1219" width="3.52439" height="6.0842" rx="1" fill="#AFAFAF"/>
<rect x="26.1219" y="6.97894" width="3.52439" height="6.0842" rx="1" fill="#AFAFAF"/>
<rect x="17.4146" y="6.97894" width="3.52439" height="6.0842" rx="1" fill="#454545"/>
<rect x="21.7683" width="3.52439" height="6.0842" rx="1" fill="#454545"/>
<rect x="30.4756" width="3.52439" height="6.0842" rx="1" fill="#454545"/>
<rect x="21.7683" y="6.97894" width="3.52439" height="6.0842" rx="1" fill="#454545"/>
<rect x="30.4756" y="6.97894" width="3.52439" height="6.0842" rx="1" fill="#454545"/>
</svg>
