<svg width="34" height="34" viewBox="0 0 34 34" fill="none" xmlns="http://www.w3.org/2000/svg">
<rect x="3.09091" width="29" height="3.09091" rx="1" transform="rotate(90 3.09091 0)" fill="#AFAFAF"/>
<rect x="8.24243" y="11" width="19" height="3.09091" rx="1" transform="rotate(90 8.24243 11)" fill="#AFAFAF"/>
<rect x="13.394" y="3" width="26" height="3.09091" rx="1" transform="rotate(90 13.394 3)" fill="#AFAFAF"/>
<rect x="28.8485" y="3" width="26" height="3.09091" rx="1" transform="rotate(90 28.8485 3)" fill="#AFAFAF"/>
<rect x="34" y="1" width="28" height="3.09091" rx="1" transform="rotate(90 34 1)" fill="#AFAFAF"/>
<rect x="18.5454" y="5" width="24" height="3.09091" rx="1" transform="rotate(90 18.5454 5)" fill="#AFAFAF"/>
<rect x="3.09091" y="5" width="29" height="3.09091" rx="1" transform="rotate(90 3.09091 5)" fill="#454545"/>
<rect x="8.24243" y="13" width="21" height="3.09091" rx="1" transform="rotate(90 8.24243 13)" fill="#454545"/>
<rect x="13.394" y="8" width="26" height="3.09091" rx="1" transform="rotate(90 13.394 8)" fill="#454545"/>
<rect x="28.8485" y="8" width="26" height="3.09091" rx="1" transform="rotate(90 28.8485 8)" fill="#454545"/>
<rect x="34" y="8" width="26" height="3.09091" rx="1" transform="rotate(90 34 8)" fill="#454545"/>
<rect x="18.5454" y="8" width="26" height="3.09091" rx="1" transform="rotate(90 18.5454 8)" fill="#454545"/>
<rect x="23.697" width="34" height="3.09091" rx="1" transform="rotate(90 23.697 0)" fill="#454545"/>
</svg>
