<svg width="34" height="34" viewBox="0 0 34 34" fill="none" xmlns="http://www.w3.org/2000/svg">
<rect x="7.73486" y="2.9575" width="6.80948" height="1.94016" rx="0.970078" fill="#AFAFAF"/>
<rect x="7.73486" y="5.86774" width="6.80948" height="1.94016" rx="0.970078" fill="#AFAFAF"/>
<rect x="7.73486" y="20.4189" width="6.80948" height="1.94016" rx="0.970078" fill="#AFAFAF"/>
<rect x="7.73486" y="29.1496" width="6.80948" height="1.94016" rx="0.970078" fill="#AFAFAF"/>
<rect x="7.73486" y="8.77797" width="6.80948" height="1.94016" rx="0.970078" fill="#AFAFAF"/>
<rect x="7.73486" y="23.3291" width="6.80948" height="1.94016" rx="0.970078" fill="#AFAFAF"/>
<rect x="7.73486" y="32.0598" width="6.80948" height="1.94016" rx="0.970078" fill="#AFAFAF"/>
<rect x="7.73486" y="11.6882" width="6.80948" height="1.94016" rx="0.970078" fill="#AFAFAF"/>
<rect x="7.73486" y="14.5984" width="6.80948" height="1.94016" rx="0.970078" fill="#AFAFAF"/>
<rect x="7.73486" y="17.5087" width="6.80948" height="1.94016" rx="0.970078" fill="#AFAFAF"/>
<rect x="7.73486" y="26.2394" width="6.80948" height="1.94016" rx="0.970078" fill="#AFAFAF"/>
<rect x="7.73486" y="0.0472565" width="6.80948" height="1.94016" rx="0.970078" fill="#454545"/>
<rect x="16.4899" y="2.9575" width="8.75505" height="1.94016" rx="0.970078" fill="#AFAFAF"/>
<rect x="16.4899" y="5.86774" width="8.75505" height="1.94016" rx="0.970078" fill="#AFAFAF"/>
<rect x="16.4899" y="20.4189" width="8.75505" height="1.94016" rx="0.970078" fill="#AFAFAF"/>
<rect x="16.4899" y="29.1496" width="8.75505" height="1.94016" rx="0.970078" fill="#AFAFAF"/>
<rect x="16.4899" y="8.77797" width="8.75505" height="1.94016" rx="0.970078" fill="#AFAFAF"/>
<rect x="16.4899" y="23.3291" width="8.75505" height="1.94016" rx="0.970078" fill="#AFAFAF"/>
<rect x="16.4899" y="32.0598" width="8.75505" height="1.94016" rx="0.970078" fill="#AFAFAF"/>
<rect x="16.4899" y="11.6882" width="8.75505" height="1.94016" rx="0.970078" fill="#AFAFAF"/>
<rect x="16.4899" y="14.5984" width="8.75505" height="1.94016" rx="0.970078" fill="#AFAFAF"/>
<rect x="16.4899" y="17.5087" width="8.75505" height="1.94016" rx="0.970078" fill="#AFAFAF"/>
<rect x="16.4899" y="26.2394" width="8.75505" height="1.94016" rx="0.970078" fill="#AFAFAF"/>
<rect x="16.4899" y="0.0472565" width="8.75505" height="1.94016" rx="0.970078" fill="#454545"/>
<rect x="27.1905" y="2.9575" width="6.80948" height="1.94016" rx="0.970078" fill="#AFAFAF"/>
<rect x="27.1905" y="5.86774" width="6.80948" height="1.94016" rx="0.970078" fill="#AFAFAF"/>
<rect x="27.1905" y="20.4189" width="6.80948" height="1.94016" rx="0.970078" fill="#AFAFAF"/>
<rect x="27.1905" y="29.1496" width="6.80948" height="1.94016" rx="0.970078" fill="#AFAFAF"/>
<rect x="27.1905" y="8.77797" width="6.80948" height="1.94016" rx="0.970078" fill="#AFAFAF"/>
<rect x="27.1905" y="23.3291" width="6.80948" height="1.94016" rx="0.970078" fill="#AFAFAF"/>
<rect x="27.1905" y="32.0598" width="6.80948" height="1.94016" rx="0.970078" fill="#AFAFAF"/>
<rect x="27.1905" y="11.6882" width="6.80948" height="1.94016" rx="0.970078" fill="#AFAFAF"/>
<rect x="27.1905" y="14.5984" width="6.80948" height="1.94016" rx="0.970078" fill="#AFAFAF"/>
<rect x="27.1905" y="17.5087" width="6.80948" height="1.94016" rx="0.970078" fill="#AFAFAF"/>
<rect x="27.1905" y="26.2394" width="6.80948" height="1.94016" rx="0.970078" fill="#AFAFAF"/>
<rect x="27.1905" y="0.0472565" width="6.80948" height="1.94016" rx="0.970078" fill="#454545"/>
<path fill-rule="evenodd" clip-rule="evenodd" d="M5.36502 3.17432L2.6825 5.44466L-2.21667e-05 3.17432L0.615218 2.45363L2.20752 3.80126L2.20752 -1.4188e-07L3.15748 -9.91944e-08L3.15748 3.80126L4.74978 2.45363L5.36502 3.17432Z" fill="#454545"/>
</svg>
