<svg width="35" height="34" viewBox="0 0 35 34" fill="none" xmlns="http://www.w3.org/2000/svg">
<path fill-rule="evenodd" clip-rule="evenodd" d="M16.7917 16.2085V0H18.2083V16.2085H34.5V17.618H18.2083V33.8265H16.7917V17.618H0.5V16.2085H16.7917Z" fill="#454545"/>
<path d="M8.83333 7.40944C8.83333 8.18785 8.19907 8.81887 7.41667 8.81887C6.63426 8.81887 6 8.18785 6 7.40944C6 6.63103 6.63426 6 7.41667 6C8.19907 6 8.83333 6.63103 8.83333 7.40944Z" fill="#AFAFAF"/>
<path d="M22.161 20.7347C22.4647 21.4521 22.1262 22.2786 21.4051 22.5806C20.6841 22.8827 19.8534 22.546 19.5497 21.8286C19.2461 21.1112 19.5846 20.2847 20.3057 19.9827C21.0267 19.6806 21.8574 20.0173 22.161 20.7347Z" fill="#AFAFAF"/>
<path d="M10.6446 20.2004C10.4285 20.9486 9.64375 21.3808 8.89177 21.1658C8.1398 20.9508 7.70536 20.1701 7.92144 19.4219C8.13752 18.6738 8.92228 18.2416 9.67425 18.4566C10.4262 18.6715 10.8607 19.4523 10.6446 20.2004Z" fill="#AFAFAF"/>
<path d="M23.5243 5.14669C22.8061 5.45542 21.9723 5.12643 21.6619 4.41186C21.3516 3.69729 21.6823 2.86774 22.4005 2.55901C23.1188 2.25028 23.9526 2.57927 24.2629 3.29384C24.5732 4.00841 24.2425 4.83796 23.5243 5.14669Z" fill="#AFAFAF"/>
<path d="M11.6666 10.2283C11.6666 11.0067 11.0324 11.6378 10.25 11.6378C9.46758 11.6378 8.83331 11.0067 8.83331 10.2283C8.83331 9.4499 9.46758 8.81888 10.25 8.81888C11.0324 8.81888 11.6666 9.4499 11.6666 10.2283Z" fill="#AFAFAF"/>
<path d="M25.8718 22.2388C26.1754 22.9562 25.837 23.7827 25.1159 24.0847C24.3948 24.3868 23.5641 24.0501 23.2605 23.3327C22.9569 22.6153 23.2953 21.7888 24.0164 21.4868C24.7375 21.1847 25.5682 21.5214 25.8718 22.2388Z" fill="#AFAFAF"/>
<path d="M15.9167 8.81888C15.9167 9.59729 15.2824 10.2283 14.5 10.2283C13.7176 10.2283 13.0833 9.59729 13.0833 8.81888C13.0833 8.04047 13.7176 7.40944 14.5 7.40944C15.2824 7.40944 15.9167 8.04047 15.9167 8.81888Z" fill="#AFAFAF"/>
<path d="M29.2391 19.299C29.5427 20.0164 29.2042 20.8428 28.4831 21.1449C27.7621 21.447 26.9314 21.1103 26.6277 20.3929C26.3241 19.6754 26.6626 18.849 27.3837 18.5469C28.1047 18.2449 28.9354 18.5816 29.2391 19.299Z" fill="#AFAFAF"/>
<path d="M14.2394 21.8652C14.0233 22.6134 13.2385 23.0456 12.4866 22.8306C11.7346 22.6156 11.3002 21.8349 11.5162 21.0867C11.7323 20.3386 12.5171 19.9064 13.269 20.1214C14.021 20.3363 14.4554 21.1171 14.2394 21.8652Z" fill="#AFAFAF"/>
<path d="M24.0693 11.4563C23.3511 11.7651 22.5173 11.4361 22.207 10.7215C21.8967 10.0069 22.2274 9.17739 22.9456 8.86866C23.6638 8.55992 24.4976 8.88892 24.8079 9.60349C25.1183 10.3181 24.7876 11.1476 24.0693 11.4563Z" fill="#AFAFAF"/>
<path d="M8.83333 13.0472C8.83333 13.8256 8.19907 14.4566 7.41667 14.4566C6.63426 14.4566 6 13.8256 6 13.0472C6 12.2688 6.63426 11.6377 7.41667 11.6377C8.19907 11.6377 8.83333 12.2688 8.83333 13.0472Z" fill="#AFAFAF"/>
<path d="M24.36 25.9306C24.6636 26.6481 24.3252 27.4745 23.6041 27.7766C22.883 28.0786 22.0523 27.7419 21.7487 27.0245C21.4451 26.3071 21.7835 25.4807 22.5046 25.1786C23.2257 24.8765 24.0564 25.2132 24.36 25.9306Z" fill="#AFAFAF"/>
<path d="M12.8227 24.6841C12.6066 25.4322 11.8219 25.8645 11.0699 25.6495C10.3179 25.4345 9.8835 24.6538 10.0996 23.9056C10.3156 23.1575 11.1004 22.7253 11.8524 22.9402C12.6044 23.1552 13.0388 23.936 12.8227 24.6841Z" fill="#AFAFAF"/>
<path d="M21.4242 9.66711C20.706 9.97584 19.8722 9.64684 19.5619 8.93227C19.2516 8.21771 19.5822 7.38816 20.3005 7.07943C21.0187 6.77069 21.8525 7.09969 22.1628 7.81426C22.4731 8.52883 22.1425 9.35837 21.4242 9.66711Z" fill="#AFAFAF"/>
</svg>
